<svg width="142" height="142" viewBox="0 0 142 142" fill="none" xmlns="http://www.w3.org/2000/svg">
<g clip-path="url(#clip0_39_3242)">
<path d="M96.3292 63.4209C96.7425 63.8331 97.0704 64.3228 97.2941 64.8619C97.5178 65.401 97.6329 65.9789 97.6329 66.5626C97.6329 67.1463 97.5178 67.7243 97.2941 68.2634C97.0704 68.8025 96.7425 69.2922 96.3292 69.7044L69.7042 96.3294C69.292 96.7426 68.8024 97.0705 68.2632 97.2942C67.7241 97.5179 67.1462 97.633 66.5625 97.633C65.9788 97.633 65.4009 97.5179 64.8617 97.2942C64.3226 97.0705 63.8329 96.7426 63.4207 96.3294L50.1082 83.0169C49.6957 82.6043 49.3684 82.1145 49.1451 81.5754C48.9218 81.0364 48.8069 80.4586 48.8069 79.8751C48.8069 79.2916 48.9218 78.7139 49.1451 78.1748C49.3684 77.6358 49.6957 77.1459 50.1082 76.7334C50.9415 75.9001 52.0716 75.432 53.25 75.432C53.8335 75.432 54.4112 75.5469 54.9503 75.7702C55.4894 75.9935 55.9792 76.3208 56.3917 76.7334L66.5625 86.913L90.0457 63.4209C90.4579 63.0076 90.9476 62.6797 91.4867 62.456C92.0259 62.2323 92.6038 62.1172 93.1875 62.1172C93.7712 62.1172 94.3491 62.2323 94.8882 62.456C95.4274 62.6797 95.917 63.0076 96.3292 63.4209V63.4209Z" fill="#6996FF"/>
<path d="M31.0625 0C32.2394 0 33.3681 0.467521 34.2003 1.29971C35.0325 2.13191 35.5 3.2606 35.5 4.4375V8.875H106.5V4.4375C106.5 3.2606 106.968 2.13191 107.8 1.29971C108.632 0.467521 109.761 0 110.938 0C112.114 0 113.243 0.467521 114.075 1.29971C114.907 2.13191 115.375 3.2606 115.375 4.4375V8.875H124.25C128.958 8.875 133.472 10.7451 136.801 14.0739C140.13 17.4026 142 21.9174 142 26.625V124.25C142 128.958 140.13 133.472 136.801 136.801C133.472 140.13 128.958 142 124.25 142H17.75C13.0424 142 8.52763 140.13 5.19885 136.801C1.87008 133.472 0 128.958 0 124.25V26.625C0 21.9174 1.87008 17.4026 5.19885 14.0739C8.52763 10.7451 13.0424 8.875 17.75 8.875H26.625V4.4375C26.625 3.2606 27.0925 2.13191 27.9247 1.29971C28.7569 0.467521 29.8856 0 31.0625 0V0ZM8.875 35.5V124.25C8.875 126.604 9.81004 128.861 11.4744 130.526C13.1388 132.19 15.3962 133.125 17.75 133.125H124.25C126.604 133.125 128.861 132.19 130.526 130.526C132.19 128.861 133.125 126.604 133.125 124.25V35.5H8.875Z" fill="#6996FF"/>
</g>
<defs>
<clipPath id="clip0_39_3242">
<rect width="142" height="142" fill="white"/>
</clipPath>
</defs>
</svg>
