<svg width="50px" height="50px" viewBox="0 0 72 72" fill="#5F81FF" xmlns="http://www.w3.org/2000/svg">
<path d="M49.7498 11.25C49.7498 10.5207 50.0395 9.8212 50.5553 9.30547C51.071 8.78975 51.7705 8.50002 52.4998 8.50002H57.9998V3.00002C57.9998 2.27067 58.2895 1.5712 58.8053 1.05547C59.321 0.539748 60.0205 0.250017 60.7498 0.250017C61.4792 0.250017 62.1786 0.539748 62.6944 1.05547C63.2101 1.5712 63.4998 2.27067 63.4998 3.00002V8.50002H68.9998C69.7292 8.50002 70.4286 8.78975 70.9444 9.30547C71.4601 9.8212 71.7498 10.5207 71.7498 11.25C71.7498 11.9794 71.4601 12.6788 70.9444 13.1946C70.4286 13.7103 69.7292 14 68.9998 14H63.4998V19.5C63.4998 20.2294 63.2101 20.9288 62.6944 21.4446C62.1786 21.9603 61.4792 22.25 60.7498 22.25C60.0205 22.25 59.321 21.9603 58.8053 21.4446C58.2895 20.9288 57.9998 20.2294 57.9998 19.5V14H52.4998C51.7705 14 51.071 13.7103 50.5553 13.1946C50.0395 12.6788 49.7498 11.9794 49.7498 11.25ZM71.3029 30.3625C71.6068 32.2262 71.7562 34.1118 71.7498 36C71.7546 40.9613 70.7236 45.869 68.7229 50.409C66.7222 54.949 63.7959 59.0214 60.1311 62.3656L59.6842 62.7781C53.1486 68.5584 44.7248 71.7492 35.9998 71.7492C27.2748 71.7492 18.851 68.5584 12.3154 62.7781L11.8686 62.3656C6.55595 57.5008 2.83692 51.1444 1.19883 44.1296C-0.439266 37.1148 0.0799901 29.7688 2.68855 23.0541C5.29712 16.3395 9.87329 10.5695 15.8174 6.50032C21.7615 2.43111 28.7963 0.252517 35.9998 0.250017C37.8881 0.243572 39.7736 0.393038 41.6373 0.696891C42.3455 0.82404 42.9756 1.22365 43.3925 1.81C43.8094 2.39636 43.98 3.12275 43.8675 3.83339C43.7551 4.54402 43.3686 5.18229 42.791 5.61128C42.2135 6.04028 41.4907 6.22583 40.7779 6.12814C39.1971 5.88141 37.5998 5.75501 35.9998 5.75002C30.1716 5.75193 24.468 7.43748 19.5749 10.604C14.6819 13.7704 10.8078 18.283 8.41847 23.599C6.02918 28.915 5.22645 34.808 6.10684 40.5694C6.98722 46.3308 9.51322 51.7152 13.3811 56.075C16.4473 51.6283 20.7669 48.1941 25.7904 46.2094C23.0961 44.0872 21.13 41.1782 20.1656 37.8868C19.2011 34.5955 19.2863 31.0854 20.4093 27.8447C21.5323 24.604 23.6372 21.7938 26.4314 19.8049C29.2256 17.816 32.5701 16.7472 35.9998 16.7472C39.4296 16.7472 42.7741 17.816 45.5682 19.8049C48.3624 21.7938 50.4673 24.604 51.5903 27.8447C52.7133 31.0854 52.7985 34.5955 51.8341 37.8868C50.8696 41.1782 48.9035 44.0872 46.2092 46.2094C51.2327 48.1941 55.5523 51.6283 58.6186 56.075C63.5432 50.5487 66.2599 43.4022 66.2498 36C66.2448 34.4 66.1184 32.8027 65.8717 31.2219C65.774 30.5091 65.9595 29.7864 66.3885 29.2088C66.8175 28.6312 67.4558 28.2447 68.1664 28.1323C68.8771 28.0199 69.6035 28.1904 70.1898 28.6073C70.7762 29.0242 71.1758 29.6544 71.3029 30.3625ZM35.9998 44.25C38.1754 44.25 40.3021 43.6049 42.1111 42.3962C43.92 41.1875 45.3299 39.4695 46.1625 37.4595C46.995 35.4495 47.2129 33.2378 46.7884 31.104C46.364 28.9702 45.3164 27.0102 43.778 25.4718C42.2396 23.9335 40.2796 22.8858 38.1458 22.4614C36.012 22.0369 33.8003 22.2548 31.7903 23.0873C29.7803 23.9199 28.0623 25.3298 26.8536 27.1387C25.6449 28.9477 24.9998 31.0744 24.9998 33.25C25.0089 36.1646 26.1707 38.9572 28.2317 41.0182C30.2926 43.0791 33.0852 44.241 35.9998 44.25ZM35.9998 66.25C42.7129 66.2598 49.2358 64.0209 54.5279 59.8906C52.5379 56.7823 49.7978 54.2245 46.56 52.4529C43.3221 50.6813 39.6906 49.7527 35.9998 49.7527C32.309 49.7527 28.6775 50.6813 25.4396 52.4529C22.2018 54.2245 19.4617 56.7823 17.4717 59.8906C22.7638 64.0209 29.2867 66.2598 35.9998 66.25Z" fill="#5F81FF"/>
</svg>
