<svg width="72" height="80" viewBox="0 0 72 80" fill="none" xmlns="http://www.w3.org/2000/svg">
  <rect x="22.5641" y="32.8206" width="10.2564" height="10.2564" rx="2.05128" fill="#464265"/>
  <path d="M3.37662 24.2055C3.37662 21.5942 4.85495 19.208 7.19307 18.0453L32.8341 5.29444C34.7636 4.33492 37.0313 4.33492 38.9608 5.29444L64.6018 18.0453C66.9399 19.208 68.4182 21.5942 68.4182 24.2055V69.7436C68.4182 73.5432 65.3381 76.6234 61.5385 76.6234H10.2564C6.4568 76.6234 3.37662 73.5432 3.37662 69.7436V24.2055Z" stroke="#464265" stroke-width="6.75325"/>
  <rect x="22.5641" y="49.2307" width="10.2564" height="10.2564" rx="2.05128" fill="#464265"/>
  <rect x="38.9744" y="32.8206" width="10.2564" height="10.2564" rx="2.05128" fill="#464265"/>
  <rect x="38.9744" y="49.2307" width="10.2564" height="10.2564" rx="2.05128" fill="#464265"/>
  </svg>
  